<mxfile host="Electron" modified="2024-04-25T04:33:31.501Z" agent="Mozilla/5.0 (Macintosh; Intel Mac OS X 10_15_7) AppleWebKit/537.36 (KHTML, like Gecko) draw.io/24.2.5 Chrome/120.0.6099.109 Electron/28.1.0 Safari/537.36" etag="D55ycWxxYxomDzVGgrCQ" version="24.2.5" type="device">
  <diagram name="Page-1" id="OE0LPR2Hh1sezkpEa1kX">
    <mxGraphModel dx="4780" dy="3247" grid="1" gridSize="10" guides="1" tooltips="1" connect="1" arrows="1" fold="1" page="1" pageScale="1" pageWidth="500" pageHeight="500" math="0" shadow="0">
      <root>
        <mxCell id="0" />
        <mxCell id="1" parent="0" />
        <mxCell id="ffPx8HYBkD7OpG0Sp8Sy-1" value="" style="shape=image;aspect=fixed;image=data:image/png,iVBORw0KGgoAAAANSUhEUgAABXwAAAdQCAIAAADg4hRoAAABhGlDQ1BJQ0MgcHJvZmlsZQAAKJF9kT1Iw0AcxV+bSkUqDnZQcchQdbGLijhqFYpQIdQKrTqYXPoFTRqSFBdHwbXg4Mdi1cHFWVcHV0EQ/ABxdnBSdJES/5cUWsR4cNyPd/ced++AYKPCNCs0C2i6baaTCTGbWxXDrwhhEALGIMjMMuYkKQXf8XWPAF/v4jzL/9yfo1fNWwwIiMSzzDBt4g3i6U3b4LxPHGUlWSU+Jx436YLEj1xXPH7jXHQ5yDOjZiY9TxwlFosdrHQwK5ka8RRxTNV0yg9mPVY5b3HWKjXWuid/YSSvryxzneYwkljEEiSIUFBDGRXYiNOqk2IhTfsJH/+Q65fIpZCrDEaOBVShQXb94H/wu1urMDnhJUUSQNeL43yMAOFdoFl3nO9jx2meAMIzcKW3/dUGMPNJer2txY6Avm3g4rqtKXvA5Q4w8GTIpuxKAs1goQC8n9E35YD+W6BnzeuttY/TByBDXaVugINDYLRI2es+7+7u7O3fM63+fgBW3XKbe1/BDgAAAAlwSFlzAAALEwAACxMBAJqcGAAAAAd0SU1FB+gEGQMyMCe9Vx4AACAASURBVHja7NgxAQAgDMAwwL/nzQT9Egk9e2fmAAAAAPz2JAAAAAAKpgMAAACQMB0AAACAhOkAAAAAJEwHAAAAIGE6AAAAAAnTAQAAAEiYDgAAAEDCdAAAAAASpgMAAACQMB0AAACAhOkAAAAAJEwHAAAAIGE6AAAAAAnTAQAAAEiYDgAAAEDCdAAAAAASpgMAAACQMB0AAACAhOkAAAAAJEwHAAAAIGE6AAAAAAnTAQAAAEiYDgAAAEDCdAAAAAASpgMAAACQMB0AAACAhOkAAAAAJEwHAAAAIGE6AAAAAAnTAQAAAEiYDgAAAEDCdAAAAAASpgMAAACQMB0AAACAhOkAAAAAJEwHAAAAIGE6AAAAAAnTAQAAAEiYDgAAAEDCdAAAAAASpgMAAACQMB0AAACAhOkAAAAAJEwHAAAAIGE6AAAAAAnTAQAAAEiYDgAAAEDCdAAAAAASpgMAAACQMB0AAACAhOkAAAAAJEwHAAAAIGE6AAAAAAnTAQAAAEiYDgAAAEDCdAAAAAASpgMAAACQMB0AAACAhOkAAAAAJEwHAAAAIGE6AAAAAAnTAQAAAEiYDgAAAEDCdAAAAAASpgMAAACQMB0AAACAhOkAAAAAJEwHAAAAIGE6AAAAAAnTAQAAAEiYDgAAAEDCdAAAAAASpgMAAACQMB0AAACAhOkAAAAAJEwHAAAAIGE6AAAAAAnTAQAAAEiYDgAAAEDCdAAAAAASpgMAAACQMB0AAACAhOkAAAAAJEwHAAAAIGE6AAAAAAnTAQAAAEiYDgAAAEDCdAAAAAASpgMAAACQMB0AAACAhOkAAAAAJEwHAAAAIGE6AAAAAAnTAQAAAEiYDgAAAEDCdAAAAAASpgMAAACQMB0AAACAhOkAAAAAJEwHAAAAIGE6AAAAAAnTAQAAAEiYDgAAAEDCdAAAAAASpgMAAACQMB0AAACAhOkAAAAAJEwHAAAAIGE6AAAAAAnTAQAAAEiYDgAAAEDCdAAAAAASpgMAAACQMB0AAACAhOkAAAAAJEwHAAAAIGE6AAAAAAnTAQAAAEiYDgAAAEDCdAAAAAASpgMAAACQMB0AAACAhOkAAAAAJEwHAAAAIGE6AAAAAAnTAQAAAEiYDgAAAEDCdAAAAAASpgMAAACQMB0AAACAhOkAAAAAJEwHAAAAIGE6AAAAAAnTAQAAAEiYDgAAAEDCdAAAAAASpgMAAACQMB0AAACAhOkAAAAAJEwHAAAAIGE6AAAAAAnTAQAAAEiYDgAAAEDCdAAAAAASpgMAAACQMB0AAACAhOkAAAAAJEwHAAAAIGE6AAAAAAnTAQAAAEiYDgAAAEDCdAAAAAASpgMAAACQMB0AAACAhOkAAAAAJEwHAAAAIGE6AAAAAAnTAQAAAEiYDgAAAEDCdAAAAAASpgMAAACQMB0AAACAhOkAAAAAJEwHAAAAIGE6AAAAAAnTAQAAAEiYDgAAAEDCdAAAAAASpgMAAACQMB0AAACAhOkAAAAAJEwHAAAAIGE6AAAAAAnTAQAAAEiYDgAAAEDCdAAAAAASpgMAAACQMB0AAACAhOkAAAAAJEwHAAAAIGE6AAAAAAnTAQAAAEiYDgAAAEDCdAAAAAASpgMAAACQMB0AAACAhOkAAAAAJEwHAAAAIGE6AAAAAAnTAQAAAEiYDgAAAEDCdAAAAAASpgMAAACQMB0AAACAhOkAAAAAJEwHAAAAIGE6AAAAAAnTAQAAAEiYDgAAAEDCdAAAAAASpgMAAACQMB0AAACAhOkAAAAAJEwHAAAAIGE6AAAAAAnTAQAAAEiYDgAAAEDCdAAAAAASpgMAAACQMB0AAACAhOkAAAAAJEwHAAAAIGE6AAAAAAnTAQAAAEiYDgAAAEDCdAAAAAASpgMAAACQMB0AAACAhOkAAAAAJEwHAAAAIGE6AAAAAAnTAQAAAEiYDgAAAEDCdAAAAAASpgMAAACQMB0AAACAhOkAAAAAJEwHAAAAIGE6AAAAAAnTAQAAAEiYDgAAAEDCdAAAAAASpgMAAACQMB0AAACAhOkAAAAAJEwHAAAAIGE6AAAAAAnTAQAAAEiYDgAAAEDCdAAAAAASpgMAAACQMB0AAACAhOkAAAAAJEwHAAAAIGE6AAAAAAnTAQAAAEiYDgAAAEDCdAAAAAASpgMAAACQMB0AAACAhOkAAAAAJEwHAAAAIGE6AAAAAAnTAQAAAEiYDgAAAEDCdAAAAAASpgMAAACQMB0AAACAhOkAAAAAJEwHAAAAIGE6AAAAAAnTAQAAAEiYDgAAAEDCdAAAAAASpgMAAACQMB0AAACAhOkAAAAAJEwHAAAAIGE6AAAAAAnTAQAAAEiYDgAAAEDCdAAAAAASpgMAAACQMB0AAACAhOkAAAAAJEwHAAAAIGE6AAAAAAnTAQAAAEiYDgAAAEDCdAAAAAASpgMAAACQMB0AAACAhOkAAAAAJEwHAAAAIGE6AAAAAAnTAQAAAEiYDgAAAEDCdAAAAAASpgMAAACQMB0AAACAhOkAAAAAJEwHAAAAIGE6AAAAAAnTAQAAAEiYDgAAAEDCdAAAAAASpgMAAACQMB0AAACAhOkAAAAAJEwHAAAAIGE6AAAAAAnTAQAAAEiYDgAAAEDCdAAAAAASpgMAAACQMB0AAACAhOkAAAAAJEwHAAAAIGE6AAAAAAnTAQAAAEiYDgAAAEDCdAAAAAASpgMAAACQMB0AAACAhOkAAAAAJEwHAAAAIGE6AAAAAAnTAQAAAEiYDgAAAEDCdAAAAAASpgMAAACQMB0AAACAhOkAAAAAJEwHAAAAIGE6AAAAAAnTAQAAAEiYDgAAAEDCdAAAAAASpgMAAACQMB0AAACAhOkAAAAAJEwHAAAAIGE6AAAAAAnTAQAAAEiYDgAAAEDCdAAAAAASpgMAAACQMB0AAACAhOkAAAAAJEwHAAAAIGE6AAAAAAnTAQAAAEiYDgAAAEDCdAAAAAASpgMAAACQMB0AAACAhOkAAAAAJEwHAAAAIGE6AAAAAAnTAQAAAEiYDgAAAEDCdAAAAAASpgMAAACQMB0AAACAhOkAAAAAJEwHAAAAIGE6AAAAAAnTAQAAAEiYDgAAAEDCdAAAAAASpgMAAACQMB0AAACAhOkAAAAAJEwHAAAAIGE6AAAAAAnTAQAAAEiYDgAAAEDCdAAAAAASpgMAAACQMB0AAACAhOkAAAAAJEwHAAAAIGE6AAAAAAnTAQAAAEiYDgAAAEDCdAAAAAASpgMAAACQMB0AAACAhOkAAAAAJEwHAAAAIGE6AAAAAAnTAQAAAEiYDgAAAEDCdAAAAAASpgMAAACQMB0AAACAhOkAAAAAJEwHAAAAIGE6AAAAAAnTAQAAAEiYDgAAAEDCdAAAAAASpgMAAACQMB0AAACAhOkAAAAAJEwHAAAAIGE6AAAAAAnTAQAAAEiYDgAAAEDCdAAAAAASpgMAAACQMB0AAACAhOkAAAAAJEwHAAAAIGE6AAAAAAnTAQAAAEiYDgAAAEDCdAAAAAASpgMAAACQMB0AAACAhOkAAAAAJEwHAAAAIGE6AAAAAAnTAQAAAEiYDgAAAEDCdAAAAAASpgMAAACQMB0AAACAhOkAAAAAJEwHAAAAIGE6AAAAAAnTAQAAAEiYDgAAAEDCdAAAAAASpgMAAACQMB0AAACAhOkAAAAAJEwHAAAAIGE6AAAAAAnTAQAAAEiYDgAAAEDCdAAAAAASpgMAAACQMB0AAACAhOkAAAAAJEwHAAAAIGE6AAAAAAnTAQAAAEiYDgAAAEDCdAAAAAASpgMAAACQMB0AAACAhOkAAAAAJEwHAAAAIGE6AAAAAAnTAQAAAEiYDgAAAEDCdAAAAAASpgMAAACQMB0AAACAhOkAAAAAJEwHAAAAIGE6AAAAAAnTAQAAAEiYDgAAAEDCdAAAAAASpgMAAACQMB0AAACAhOkAAAAAJEwHAAAAIGE6AAAAAAnTAQAAAEiYDgAAAEDCdAAAAAASpgMAAACQMB0AAACAhOkAAAAAJEwHAAAAIGE6AAAAAAnTAQAAAEiYDgAAAEDCdAAAAAASpgMAAACQMB0AAACAhOkAAAAAJEwHAAAAIGE6AAAAAAnTAQAAAEiYDgAAAEDCdAAAAAASpgMAAACQMB0AAACAhOkAAAAAJEwHAAAAIGE6AAAAAAnTAQAAAEiYDgAAAEDCdAAAAAASpgMAAACQMB0AAACAhOkAAAAAJEwHAAAAIGE6AAAAAAnTAQAAAEiYDgAAAEDCdAAAAAASpgMAAACQMB0AAACAhOkAAAAAJEwHAAAAIGE6AAAAAAnTAQAAAEiYDgAAAEDCdAAAAAASpgMAAACQMB0AAACAhOkAAAAAJEwHAAAAIGE6AAAAAAnTAQAAAEiYDgAAAEDCdAAAAAASpgMAAACQMB0AAACAhOkAAAAAJEwHAAAAIGE6AAAAAAnTAQAAAEiYDgAAAEDCdAAAAAASpgMAAACQMB0AAACAhOkAAAAAJEwHAAAAIGE6AAAAAAnTAQAAAEiYDgAAAEDCdAAAAAASpgMAAACQMB0AAACAhOkAAAAAJEwHAAAAIGE6AAAAAAnTAQAAAEiYDgAAAEDCdAAAAAASpgMAAACQMB0AAACAhOkAAAAAJEwHAAAAIGE6AAAAAAnTAQAAAEiYDgAAAEDCdAAAAAASpgMAAACQMB0AAACAhOkAAAAAJEwHAAAAIGE6AAAAAAnTAQAAAEiYDgAAAEDCdAAAAAASpgMAAACQMB0AAACAhOkAAAAAJEwHAAAAIGE6AAAAAAnTAQAAAEiYDgAAAEDCdAAAAAASpgMAAACQMB0AAACAhOkAAAAAJEwHAAAAIGE6AAAAAAnTAQAAAEiYDgAAAEDCdAAAAAASpgMAAACQMB0AAACAhOkAAAAAJEwHAAAAIGE6AAAAAAnTAQAAAEiYDgAAAEDCdAAAAAASpgMAAACQMB0AAACAhOkAAAAAJEwHAAAAIGE6AAAAAAnTAQAAAEiYDgAAAEDCdAAAAAASpgMAAACQMB0AAACAhOkAAAAAJEwHAAAAIGE6AAAAAAnTAQAAAEiYDgAAAEDCdAAAAAASpgMAAACQMB0AAACAhOkAAAAAJEwHAAAAIGE6AAAAAAnTAQAAAEiYDgAAAEDCdAAAAAASpgMAAACQMB0AAACAhOkAAAAAJEwHAAAAIGE6AAAAAAnTAQAAAEiYDgAAAEDCdAAAAAASpgMAAACQMB0AAACAhOkAAAAAJEwHAAAAIGE6AAAAAAnTAQAAAEiYDgAAAEDCdAAAAAASpgMAAACQMB0AAACAhOkAAAAAJEwHAAAAIGE6AAAAAAnTAQAAAEiYDgAAAEDCdAAAAAASpgMAAACQMB0AAACAhOkAAAAAJEwHAAAAIGE6AAAAAAnTAQAAAEiYDgAAAEDCdAAAAAASpgMAAACQMB0AAACAhOkAAAAAJEwHAAAAIGE6AAAAAAnTAQAAAEiYDgAAAEDCdAAAAAASpgMAAACQMB0AAACAhOkAAAAAJEwHAAAAIGE6AAAAAAnTAQAAAEiYDgAAAEDCdAAAAAASpgMAAACQMB0AAACAhOkAAAAAJEwHAAAAIGE6AAAAAAnTAQAAAEiYDgAAAEDCdAAAAAASpgMAAACQMB0AAACAhOkAAAAAJEwHAAAAIGE6AAAAAAnTAQAAAEiYDgAAAEDCdAAAAAASpgMAAACQMB0AAACAhOkAAAAAJEwHAAAAIGE6AAAAAAnTAQAAAEiYDgAAAEDCdAAAAAASpgMAAACQMB0AAACAhOkAAAAAJEwHAAAAIGE6AAAAAAnTAQAAAEiYDgAAAEDCdAAAAAASpgMAAACQMB0AAACAhOkAAAAAJEwHAAAAIGE6AAAAAAnTAQAAAEiYDgAAAEDCdAAAAAASpgMAAACQMB0AAACAhOkAAAAAJEwHAAAAIGE6AAAAAAnTAQAAAEiYDgAAAEDCdAAAAAASpgMAAACQMB0AAACAhOkAAAAAJEwHAAAAIGE6AAAAAAnTAQAAAEiYDgAAAEDCdAAAAAASpgMAAACQMB0AAACAhOkAAAAAJEwHAAAAIGE6AAAAAAnTAQAAAEiYDgAAAEDCdAAAAAASpgMAAACQMB0AAACAhOkAAAAAJEwHAAAAIGE6AAAAAAnTAQAAAEiYDgAAAEDCdAAAAAASpgMAAACQMB0AAACAhOkAAAAAJEwHAAAAIGE6AAAAAAnTAQAAAEiYDgAAAEDCdAAAAAASpgMAAACQMB0AAACAhOkAAAAAJEwHAAAAIGE6AAAAAAnTAQAAAEiYDgAAAEDCdAAAAAASpgMAAACQMB0AAACAhOkAAAAAJEwHAAAAIGE6AAAAAAnTAQAAAEiYDgAAAEDCdAAAAAASpgMAAACQMB0AAACAhOkAAAAAJEwHAAAAIGE6AAAAAAnTAQAAAEiYDgAAAEDCdAAAAAASpgMAAACQMB0AAACAhOkAAAAAJEwHAAAAIGE6AAAAAAnTAQAAAEiYDgAAAEDCdAAAAAASpgMAAACQMB0AAACAhOkAAAAAJEwHAAAAIGE6AAAAAAnTAQAAAEiYDgAAAEDCdAAAAAASpgMAAACQMB0AAACAhOkAAAAAJEwHAAAAIGE6AAAAAAnTAQAAAEiYDgAAAEDCdAAAAAASpgMAAACQMB0AAACAhOkAAAAAJEwHAAAAIGE6AAAAAAnTAQAAAEiYDgAAAEDCdAAAAAASpgMAAACQMB0AAACAhOkAAAAAJEwHAAAAIGE6AAAAAAnTAQAAAEiYDgAAAEDCdAAAAAASpgMAAACQMB0AAACAhOkAAAAAJEwHAAAAIGE6AAAAAAnTAQAAAEiYDgAAAEDCdAAAAAASpgMAAACQMB0AAACAhOkAAAAAJEwHAAAAIGE6AAAAAAnTAQAAAEiYDgAAAEDCdAAAAAASpgMAAACQMB0AAACAhOkAAAAAJEwHAAAAIGE6AAAAAAnTAQAAAEiYDgAAAEDCdAAAAAASpgMAAACQMB0AAACAhOkAAAAAJEwHAAAAIGE6AAAAAAnTAQAAAEiYDgAAAEDCdAAAAAASpgMAAACQMB0AAACAhOkAAAAAJEwHAAAAIGE6AAAAAAnTAQAAAEiYDgAAAEDCdAAAAAASpgMAAACQMB0AAACAhOkAAAAAJEwHAAAAIGE6AAAAAAnTAQAAAEiYDgAAAEDCdAAAAAASpgMAAACQMB0AAACAhOkAAAAAJEwHAAAAIGE6AAAAAAnTAQAAAEiYDgAAAEDCdAAAAAASpgMAAACQMB0AAACAhOkAAAAAJEwHAAAAIGE6AAAAAAnTAQAAAEiYDgAAAEDCdAAAAAASpgMAAACQMB0AAACAhOkAAAAAJEwHAAAAIGE6AAAAAAnTAQAAAEiYDgAAAEDCdAAAAAASpgMAAACQMB0AAACAhOkAAAAAJEwHAAAAIGE6AAAAAAnTAQAAAEiYDgAAAEDCdAAAAAASpgMAAACQMB0AAACAhOkAAAAAJEwHAAAAIGE6AAAAAAnTAQAAAEiYDgAAAEDCdAAAAAASpgMAAACQMB0AAACAhOkAAAAAJEwHAAAAIGE6AAAAAAnTAQAAAEiYDgAAAEDCdAAAAAASpgMAAACQMB0AAACAhOkAAAAAJEwHAAAAIGE6AAAAAAnTAQAAAEiYDgAAAEDCdAAAAAASpgMAAACQMB0AAACAhOkAAAAAJEwHAAAAIGE6AAAAAAnTAQAAAEiYDgAAAEDCdAAAAAASpgMAAACQMB0AAACAhOkAAAAAJEwHAAAAIGE6AAAAAAnTAQAAAEiYDgAAAEDCdAAAAAASpgMAAACQMB0AAACAhOkAAAAAJEwHAAAAIGE6AAAAAAnTAQAAAEiYDgAAAEDCdAAAAAASpgMAAACQMB0AAACAhOkAAAAAJEwHAAAAIGE6AAAAAAnTAQAAAEiYDgAAAEDCdAAAAAASpgMAAACQMB0AAACAhOkAAAAAJEwHAAAAIGE6AAAAAAnTAQAAAEiYDgAAAEDCdAAAAAASpgMAAACQMB0AAACAhOkAAAAAJEwHAAAAIGE6AAAAAAnTAQAAAEiYDgAAAEDCdAAAAAASpgMAAACQMB0AAACAhOkAAAAAJEwHAAAAIGE6AAAAAAnTAQAAAEiYDgAAAEDCdAAAAAASpgMAAACQMB0AAACAhOkAAAAAJEwHAAAAIGE6AAAAAAnTAQAAAEiYDgAAAEDCdAAAAAASpgMAAACQMB0A2HbsWAAAAABgkL/1KPYVRgAAsJAOAAAAwEI6AAAAAAvpAAAAACykAwAAALCQDgAAAMBCOgAAAAAL6QAAAAAspAMAAACwkA4AAADAQjoAAAAAC+kAAAAALKQDAAAAsJAOAAAAwEI6AAAAAAvpAAAAACykAwAAALCQDgAAAMBCOgAAAAAL6QAAAAAspAMAAACwkA4AAADAQjoAAAAAC+kAAAAALKQDAAAAsJAOAAAAwEI6AAAAAAvpAAAAACykAwAAALCQDgAAAMBCOgAAAAAL6QAAAAAspAMAAACwkA4AAADAQjoAAAAAC+kAAAAALKQDAAAAsJAOAAAAwEI6AAAAAAvpAAAAACykAwAAALCQDgAAAMBCOgAAAAAL6QAAAAAspAMAAACwkA4AAADAQjoAAAAAC+kAAAAALKQDAAAAsJAOAAAAwEI6AAAAAAvpAAAAACykAwAAALCQDgAAAMBCOgAAAAAL6QAAAAAspAMAAACwkA4AAADAQjoAAAAAC+kAAAAALKQDAAAAsJAOAAAAwEI6AAAAAAvpAAAAACykAwAAALCQDgAAAMBCOgAAAAAL6QAAAAAspAMAAACwkA4AAADAQjoAAAAAC+kAAAAALKQDAAAAsJAOAAAAwEI6AAAAAAvpAAAAACykAwAAALCQDgAAAMBCOgAAAAAL6QAAAAAspAMAAACwkA4AAADAQjoAAAAAC+kAAAAALKQDAAAAsJAOAAAAwEI6AAAAAAvpAAAAACykAwAAALCQDgAAAMBCOgAAAAAL6QAAAAAspAMAAACwkA4AAADAQjoAAAAAC+kAAAAALKQDAAAAsJAOAAAAwEI6AAAAAAvpAAAAACykAwAAALCQDgAAAMBCOgAAAAAL6QAAAAAspAMAAACwkA4AAADAQjoAAAAAC+kAAAAALKQDAAAAsJAOAAAAwEI6AAAAAAvpAAAAACykAwAAALCQDgAAAMBCOgAAAAAL6QAAAAAspAMAAACwkA4AAADAQjoAAAAAC+kAAAAALKQDAAAAsJAOAAAAwEI6AAAAAAvpAAAAACykAwAAALCQDgAAAMBCOgAAAAAL6QAAAAAspAMAAACwkA4AAADAQjoAAAAAC+kAAAAALKQDAAAAsJAOAAAAwEI6AAAAAAvpAAAAACykAwAAALCQDgAAAMBCOgAAAAAL6QAAAAAspAMAAACwkA4AAADAQjoAAAAAC+kAAAAALKQDAAAAsJAOAAAAwEI6AAAAAAvpAAAAACykAwAAALCQDgAAAMBCOgAAAAAL6QAAAAAspAMAAACwkA4AAADAQjoAAAAAC+kAAAAALKQDAAAAsJAOAAAAwEI6AAAAAAvpAAAAACykAwAAALCQDgAAAMBCOgAAAAAL6QAAAAAspAMAAACwkA4AAADAQjoAAAAAC+kAAAAALKQDAAAAsJAOAAAAwEI6AAAAAAvpAAAAACykAwAAALCQDgAAAMBCOgAAAAAL6QAAAAAspAMAAACwkA4AAADAQjoAAAAAC+kAAAAALKQDAAAAsJAOAAAAwEI6AAAAAAvpAAAAACykAwAAALCQDgAAAMBCOgAAAAAL6QAAAAAspAMAAACwkA4AAADAQjoAAAAAC+kAAAAALKQDAAAAsJAOAAAAwEI6AAAAAAvpAAAAACykAwAAALCQDgAAAMBCOgAAAAAL6QAAAAAspAMAAACwkA4AAADAQjoAAAAAC+kAAAAALKQDAAAAsJAOAAAAwEI6AAAAAAvpAAAAACykAwAAALCQDgAAAMBCOgAAAAAL6QAAAAAspAMAAACwkA4AAADAQjoAAAAAC+kAAAAALKQDAAAAsJAOAAAAwEI6AAAAAAvpAAAAACykAwAAALCQDgAAAMBCOgAAAAAL6QAAAAAspAMAAACwkA4AAADAQjoAAAAAC+kAAAAALKQDAAAAsJAOAAAAwEI6AAAAAAvpAAAAACykAwAAALCQDgAAAMBCOgAAAAAL6QAAAAAspAMAAACwkA4AAADAQjoAAAAAC+kAAAAALKQDAAAAsJAOAAAAwEI6AAAAAAvpAAAAACykAwAAALCQDgAAAMBCOgAAAAAL6QAAAAAspAMAAACwkA4AAADAQjoAAAAAC+kAAAAALKQDAAAAsJAOAAAAwEI6AAAAAAvpAAAAACykAwAAALCQDgAAAMBCOgAAAAAL6QAAAAAspAMAAACwkA4AAADAQjoAAAAAC+kAAAAALKQDAAAAsJAOAAAAwEI6AAAAAAvpAAAAACykAwAAALCQDgAAAMBCOgAAAAAL6QAAAAAspAMAAACwkA4AAADAQjoAAAAAC+kAAAAALKQDAAAAsJAOAAAAwEI6AAAAAAvpAAAAACykAwAAALCQDgAAAMBCOgAAAAAL6QAAAAAspAMAAACwkA4AAADAQjoAAAAAC+kAAAAALKQDAAAAsJAOAAAAwEI6AAAAAAvpAAAAACykAwAAALCQDgAAAMBCOgAAAAAL6QAAAAAspAMAAACwkA4AAADAQjoAAAAAC+kAAAAALKQDAAAAsJAOAAAAwEI6AAAAAAvpAAAAACykAwAAALCQDgAAAMBCOgAAAAAL6QAAAAAspAMAAACwkA4AAADAQjoAAAAAC+kAAAAALKQDAAAAsJAOAAAAwEI6AAAAAAvpAAAAACykAwAAALCQDgAAAMBCOgAAAAAL6QAAAAAspAMAAACwkA4AAADAQjoARHaw2QAADldJREFUAAAAC+kAAAAALKQDAAAAsJAOAAAAwEI6AAAAAAvpAAAAACykAwAAALCQDgAAAMBCOgAAAAAL6QAAAAAspAMAAACwkA4AAADAQjoAAAAAC+kAAAAALKQDAAAAsJAOAAAAwEI6AAAAAAvpAAAAACykAwAAALCQDgAAAMBCOgAAAAAL6QAAAAAspAMAAACwkA4AAADAQjoAAAAAC+kAAAAALKQDAAAAsJAOAAAAwEI6AAAAAAvpAAAAACykAwAAALCQDgAAAMBCOgAAAAAL6QAAAAAspAMAAACwkA4AAADAQjoAAAAAC+kAAAAALKQDAAAAsJAOAAAAwEI6AAAAAAvpAAAAACykAwAAALCQDgAAAMBCOgAAAAAL6QAAAAAspAMAAACwkA4AAADAQjoAAAAAC+kAAAAALKQDAAAAsJAOAAAAwEI6AAAAAAvpAAAAACykAwAAALCQDgAAAMBCOgAAAAAL6QAAAAAspAMAAACwkA4AAADAQjoAAAAAC+kAAAAALKQDAAAAsJAOAAAAwEI6AAAAAAvpAAAAACykAwAAALCQDgAAAMBCOgAAAAAL6QAAAAAspAMAAACwkA4AAADAQjoAAAAAC+kAAAAALKQDAAAAsJAOAAAAwEI6AAAAAAvpAAAAACykAwAAALCQDgAAAMBCOgAAAAAL6QAAAAAspAMAAACwkA4AAADAQjoAAAAAC+kAAAAALKQDAAAAsJAOAAAAwEI6AAAAAAvpAAAAACykAwAAALCQDgAAAMBCOgAAAAAL6QAAAAAspAMAAACwkA4AAADAQjoAAAAAC+kAAAAALKQDAAAAsJAOAAAAwEI6AAAAAAvpAAAAACykAwAAALCQDgAAAMBCOgAAAAAL6QAAAAAspAMAAACwkA4AAADAQjoAAAAAC+kAAAAALKQDAAAAsJAOAAAAwEI6AAAAAAvpAAAAACykAwAAALCQDgAAAMBCOgAAAAAL6QAAAAAspAMAAACwkA4AAADAQjoAAAAAC+kAAAAALKQDAAAAsJAOAAAAwEI6AAAAAAvpAAAAACykAwAAALCQDgAAAMBCOgAAAAAL6QAAAAAspAMAAACwkA4AAADAQjoAAAAAC+kAAAAALKQDAAAAsJAOAAAAwEI6AAAAAAvpAAAAACykAwAAALCQDgAAAMBCOgAAAAAL6QAAAAAspAMAAACwkA4AAADAQjoAAAAAC+kAAAAALKQDAAAAsJAOAAAAwEI6AAAAAAvpAAAAACykAwAAALCQDgAAAMBCOgAAAAAL6QAAAAAspAMAAACwkA4AAADAQjoAAAAAC+kAAAAALKQDAAAAsJAOAAAAwEI6AAAAAAvpAAAAACykAwAAALCQDgAAAMBCOgAAAAAL6QAAAAAspAMAAACwkA4AAADAQjoAAAAAC+kAAAAALKQDAAAAsJAOAAAAwEI6AAAAAAvpAAAAACykAwAAALCQDgAAAMBCOgAAAAAL6QAAAAAspAMAAACwkA4AAADAQjoAAAAAC+kAAAAALKQDAAAAsJAOAAAAwEI6AAAAAAvpAAAAACykAwAAALCQDgAAAMBCOgAAAAAL6QAAAAAspAMAAACwkA4AAADAQjoAAAAAC+kAAAAALKQDAAAAsJAOAAAAwEI6AAAAAAvpAAAAACykAwAAALCQDgAAAMBCOgAAAAAL6QAAAAAspAMAAACwkA4AAADAQjoAAAAAC+kAAAAALKQDAAAAsJAOAAAAwEI6AAAAAAvpAAAAACykAwAAALCQDgAAAMBCOgAAAAAL6QAAAAAspAMAAACwkA4AAADAQjoAAAAAC+kAAAAALKQDAAAAsJAOAAAAwEI6AAAAAAvpAAAAACykAwAAALCQDgAAAMBCOgAAAAAL6QAAAAAspAMAAACwkA4AAADAQjoAAAAAC+kAAAAALKQDAAAAsJAOAAAAwEI6AAAAAAvpAAAAACykAwAAALCQDgAAAMBCOgAAAAAL6QAAAAAspAMAAACwkA4AAADAQjoAAAAAC+kAAAAALKQDAAAAsJAOAAAAwEI6AAAAAAvpAAAAACykAwAAALCQDgAAAMBCOgAAAAAL6QAAAAAspAMAAACwkA4AAADAQjoAAAAAC+kAAAAALKQDAAAAsJAOAAAAwEI6AAAAAAvpAAAAACykAwAAALCQDgAAAMBCOgAAAAAL6QAAAAAspAMAAACwkA4AAADAQjoAAAAAC+kAAAAALKQDAAAAsJAOAAAAwEI6AAAAAAvpAAAAACykAwAAALCQDgAAAMBCOgAAAAAL6QAAAAAspAMAAACwkA4AAADAQjoAAAAAC+kAAAAALKQDAAAAsJAOAAAAwEI6AAAAAAvpAAAAACykAwAAALCQDgAAAMBCOgAAAAAL6QAAAAAspAMAAACwkA4AAADAQjoAAAAAC+kAAAAALKQDAAAAsJAOAAAAwEI6AAAAAAvpAAAAACykAwAAALCQDgAAAMBCOgAAAAAL6QAAAAAspAMAAACwkA4AAADAQjoAAAAAC+kAAAAALKQDAAAAsJAOAAAAwEI6AAAAAAvpAAAAACykAwAAALCQDgAAAMBCOgAAAAAL6QAAAAAspAMAAACwkA4AAADAQjoAAAAAC+kAAAAALKQDAAAAsJAOAAAAwEI6AAAAAAvpAAAAACykAwAAALCQDgAAAMBCOgAAAAAL6QAAAAAspAMAAACwkA4AAADAQjoAAAAAC+kAAAAALKQDAAAAsJAOAAAAwEI6AAAAAAvpAAAAACykAwAAALCQDgAAAMBCOgAAAAAL6QAAAAAspAMAAACwkA4AAADAQjoAAAAAC+kAAAAALKQDAAAAsJAOAAAAwEI6AAAAAAvpAAAAACykAwAAALCQDgAAAMBCOgAAAAAL6QAAAAAspAMAAACwkA4AAADAQjoAAAAAC+kAAAAALKQDAAAAsJAOAAAAwEI6AAAAAAvpAAAAACykAwAAALCQDgAAAMBCOgAAAAAL6QAAAAAspAMAAACwkA4AAADAQjoAAAAAC+kAAAAALKQDAAAAsJAOAAAAwEI6AAAAAAvpAAAAACykAwAAALCQDgAAAMBCOgAAAAAL6QAAAAAspAMAAACwkA4AAADAQjoAAAAAC+kAAAAALKQDAAAAsJAOAAAAwEI6AAAAAAvpAAAAACykAwAAALCQDgAAAMBCOgAAAAAL6QAAAAAspAMAAACwkA4AAADAQjoAAAAAC+kAAAAALKQDAAAAsJAOAAAAwEI6AAAAAAvpAAAAACykAwAAALCQDgAAAMBCOgAAAAAL6QAAAAAspAMAAACwkA4AAADAQjoAAAAAC+kAAAAALKQDAAAAsJAOAAAAwEI6AAAAAAvpAAAAACykAwAAALCQDgAAAMBCOgAAAAAL6QAAAAAspAMAAACwkA4AAADAQjoAAAAAC+kAAAAALKQDAAAAsJAOAAAAwEI6AAAAAAvpAAAAACykAwAAALCQDgAAAMBCOgAAAAAL6QAAAAAspAMAAACwkA4AAADAQjoAAAAAC+kAAAAALKQDAAAAsJAOAAAAwEI6AAAAAAvpAAAAACykAwAAALCQDgAAAMBCOgAAAAAL6QAAAAAspAMAAACwkA4AAADAQjoAAAAAC+kAAAAALKQDAAAAsJAOAAAAwEI6AAAAAAvpAAAAACykAwAAALCQDgAAAMBCOgAAAAAL6QAAAAAspAMAAACwkA4AAADAQjoAAAAAC+kAAAAALKQDAAAAsJAOAAAAwEI6AAAAAAvpAAAAACykAwAAALCQDgAAAMBCOgAAAAAL6QAAAAAspAMAAACwkA4AAADAQjoAAAAAC+kAAAAALKQDAAAAsJAOAAAAwEI6AAAAAAvpAAAAACykAwAAALCQDgAAAMBCOgAAAAAL6QAAAAAspAMAAACwkA4AAADAQjoAAAAAC+kAAAAALKQDAAAAsJAOAAAAwEI6AAAAAAvpAAAAACykAwAAALCQDgAAAMBCOgAAAAAL6QAAAAAspAMAAACwkA4AAADAQjoAAAAAC+kAAAAALKQDAAAAsJAOAAAAwEI6AAAAAAvpAAAAACykAwAAALCQDgAAAMBCOgAAAAAL6QAAAAAspAMAAACwkA4AAADAQjoAAAAAC+kAAAAALKQDAAAAsJAOAAAAwEI6AAAAAAvpAAAAACykAwAAALCQDgAAAMBCOgAAAAAL6QAAAAAspAMAAACwkA4AAADAQjoAAAAAC+kAAAAALKQDAAAAsJAOAAAAwEI6AAAAAAvpAAAAACykAwAAALCQDgAAAMBCOgAAAAAL6QAAAAAspAMAAACwkA4AAADAQjoAAAAAC+kAAAAALKQDAAAAsJAOAAAAwEI6AAAAAAvpAAAAACykAwAAALCQDgAAAMBCOgAAAAAL6QAAAAAspAMAAACwkA4AAADAQjoAAAAAC+kAAAAALKQDAAAAsJAOAAAAwEI6AAAAAAvpAAAAACykAwAAALCQDgAAAMBCOgAAAAAL6QAAAAAspAMAAACwkA4AAADAQjoAAAAAC+kAAAAALKQDAAAAsJAOAAAAwEI6AAAAAAvpAAAAACykAwAAALCQDgAAAMBCOgAAAAAL6QAAAAAspAMAAACwkA4AAADAQjoAAAAAC+kAAAAALKQDAAAAsJAOAAAAwEI6AAAAAAvpAAAAACykAwAAALCQDgAAAMBCOgAAAAAL6QAAAAAspAMAAACwkA4AAADAQjoAAAAAC+kAAAAALKQDAAAAsJAOAAAAwEI6AAAAAAvpAAAAACykAwAAALCQDgAAAMBCOgAAAAAL6QAAAAAspAMAAACwkA4AAADAQjoAAAAAC+kAAAAALKQDAAAAsJAOAAAAwEI6AAAAAAvpAAAAACykAwAAALCQDgAAAMBCOgAAAAAL6QAAAAAspAMAAACwCPVoEZ183oSzAAAAAElFTkSuQmCC;" vertex="1" parent="1">
          <mxGeometry width="1404" height="1872" as="geometry" />
        </mxCell>
      </root>
    </mxGraphModel>
  </diagram>
</mxfile>
